<?xml version="1.0" encoding="utf-8"?>
<svg xmlns="http://www.w3.org/2000/svg" xmlns:xlink="http://www.w3.org/1999/xlink" style="margin: auto; background: none; display: block; shape-rendering: auto;" width="217px" height="217px" viewBox="0 0 100 100" preserveAspectRatio="xMidYMid">
<g transform="rotate(0 50 50)">
  <rect x="39" y="37" rx="11" ry="2" width="22" height="4" fill="#eab145">
    <animate attributeName="opacity" values="1;0" keyTimes="0;1" dur="0.8695652173913042s" begin="-0.8574879227053139s" repeatCount="indefinite"></animate>
  </rect>
</g><g transform="rotate(5 50 50)">
  <rect x="39" y="37" rx="11" ry="2" width="22" height="4" fill="#eab145">
    <animate attributeName="opacity" values="1;0" keyTimes="0;1" dur="0.8695652173913042s" begin="-0.8454106280193235s" repeatCount="indefinite"></animate>
  </rect>
</g><g transform="rotate(10 50 50)">
  <rect x="39" y="37" rx="11" ry="2" width="22" height="4" fill="#eab145">
    <animate attributeName="opacity" values="1;0" keyTimes="0;1" dur="0.8695652173913042s" begin="-0.8333333333333333s" repeatCount="indefinite"></animate>
  </rect>
</g><g transform="rotate(15 50 50)">
  <rect x="39" y="37" rx="11" ry="2" width="22" height="4" fill="#eab145">
    <animate attributeName="opacity" values="1;0" keyTimes="0;1" dur="0.8695652173913042s" begin="-0.8212560386473429s" repeatCount="indefinite"></animate>
  </rect>
</g><g transform="rotate(20 50 50)">
  <rect x="39" y="37" rx="11" ry="2" width="22" height="4" fill="#eab145">
    <animate attributeName="opacity" values="1;0" keyTimes="0;1" dur="0.8695652173913042s" begin="-0.8091787439613526s" repeatCount="indefinite"></animate>
  </rect>
</g><g transform="rotate(25 50 50)">
  <rect x="39" y="37" rx="11" ry="2" width="22" height="4" fill="#eab145">
    <animate attributeName="opacity" values="1;0" keyTimes="0;1" dur="0.8695652173913042s" begin="-0.7971014492753622s" repeatCount="indefinite"></animate>
  </rect>
</g><g transform="rotate(30 50 50)">
  <rect x="39" y="37" rx="11" ry="2" width="22" height="4" fill="#eab145">
    <animate attributeName="opacity" values="1;0" keyTimes="0;1" dur="0.8695652173913042s" begin="-0.7850241545893719s" repeatCount="indefinite"></animate>
  </rect>
</g><g transform="rotate(35 50 50)">
  <rect x="39" y="37" rx="11" ry="2" width="22" height="4" fill="#eab145">
    <animate attributeName="opacity" values="1;0" keyTimes="0;1" dur="0.8695652173913042s" begin="-0.7729468599033815s" repeatCount="indefinite"></animate>
  </rect>
</g><g transform="rotate(40 50 50)">
  <rect x="39" y="37" rx="11" ry="2" width="22" height="4" fill="#eab145">
    <animate attributeName="opacity" values="1;0" keyTimes="0;1" dur="0.8695652173913042s" begin="-0.7608695652173912s" repeatCount="indefinite"></animate>
  </rect>
</g><g transform="rotate(45 50 50)">
  <rect x="39" y="37" rx="11" ry="2" width="22" height="4" fill="#eab145">
    <animate attributeName="opacity" values="1;0" keyTimes="0;1" dur="0.8695652173913042s" begin="-0.7487922705314008s" repeatCount="indefinite"></animate>
  </rect>
</g><g transform="rotate(50 50 50)">
  <rect x="39" y="37" rx="11" ry="2" width="22" height="4" fill="#eab145">
    <animate attributeName="opacity" values="1;0" keyTimes="0;1" dur="0.8695652173913042s" begin="-0.7367149758454106s" repeatCount="indefinite"></animate>
  </rect>
</g><g transform="rotate(55 50 50)">
  <rect x="39" y="37" rx="11" ry="2" width="22" height="4" fill="#eab145">
    <animate attributeName="opacity" values="1;0" keyTimes="0;1" dur="0.8695652173913042s" begin="-0.7246376811594202s" repeatCount="indefinite"></animate>
  </rect>
</g><g transform="rotate(60 50 50)">
  <rect x="39" y="37" rx="11" ry="2" width="22" height="4" fill="#eab145">
    <animate attributeName="opacity" values="1;0" keyTimes="0;1" dur="0.8695652173913042s" begin="-0.7125603864734299s" repeatCount="indefinite"></animate>
  </rect>
</g><g transform="rotate(65 50 50)">
  <rect x="39" y="37" rx="11" ry="2" width="22" height="4" fill="#eab145">
    <animate attributeName="opacity" values="1;0" keyTimes="0;1" dur="0.8695652173913042s" begin="-0.7004830917874395s" repeatCount="indefinite"></animate>
  </rect>
</g><g transform="rotate(70 50 50)">
  <rect x="39" y="37" rx="11" ry="2" width="22" height="4" fill="#eab145">
    <animate attributeName="opacity" values="1;0" keyTimes="0;1" dur="0.8695652173913042s" begin="-0.6884057971014492s" repeatCount="indefinite"></animate>
  </rect>
</g><g transform="rotate(75 50 50)">
  <rect x="39" y="37" rx="11" ry="2" width="22" height="4" fill="#eab145">
    <animate attributeName="opacity" values="1;0" keyTimes="0;1" dur="0.8695652173913042s" begin="-0.6763285024154588s" repeatCount="indefinite"></animate>
  </rect>
</g><g transform="rotate(80 50 50)">
  <rect x="39" y="37" rx="11" ry="2" width="22" height="4" fill="#eab145">
    <animate attributeName="opacity" values="1;0" keyTimes="0;1" dur="0.8695652173913042s" begin="-0.6642512077294686s" repeatCount="indefinite"></animate>
  </rect>
</g><g transform="rotate(85 50 50)">
  <rect x="39" y="37" rx="11" ry="2" width="22" height="4" fill="#eab145">
    <animate attributeName="opacity" values="1;0" keyTimes="0;1" dur="0.8695652173913042s" begin="-0.6521739130434782s" repeatCount="indefinite"></animate>
  </rect>
</g><g transform="rotate(90 50 50)">
  <rect x="39" y="37" rx="11" ry="2" width="22" height="4" fill="#eab145">
    <animate attributeName="opacity" values="1;0" keyTimes="0;1" dur="0.8695652173913042s" begin="-0.6400966183574879s" repeatCount="indefinite"></animate>
  </rect>
</g><g transform="rotate(95 50 50)">
  <rect x="39" y="37" rx="11" ry="2" width="22" height="4" fill="#eab145">
    <animate attributeName="opacity" values="1;0" keyTimes="0;1" dur="0.8695652173913042s" begin="-0.6280193236714975s" repeatCount="indefinite"></animate>
  </rect>
</g><g transform="rotate(100 50 50)">
  <rect x="39" y="37" rx="11" ry="2" width="22" height="4" fill="#eab145">
    <animate attributeName="opacity" values="1;0" keyTimes="0;1" dur="0.8695652173913042s" begin="-0.6159420289855072s" repeatCount="indefinite"></animate>
  </rect>
</g><g transform="rotate(105 50 50)">
  <rect x="39" y="37" rx="11" ry="2" width="22" height="4" fill="#eab145">
    <animate attributeName="opacity" values="1;0" keyTimes="0;1" dur="0.8695652173913042s" begin="-0.6038647342995168s" repeatCount="indefinite"></animate>
  </rect>
</g><g transform="rotate(110 50 50)">
  <rect x="39" y="37" rx="11" ry="2" width="22" height="4" fill="#eab145">
    <animate attributeName="opacity" values="1;0" keyTimes="0;1" dur="0.8695652173913042s" begin="-0.5917874396135265s" repeatCount="indefinite"></animate>
  </rect>
</g><g transform="rotate(115 50 50)">
  <rect x="39" y="37" rx="11" ry="2" width="22" height="4" fill="#eab145">
    <animate attributeName="opacity" values="1;0" keyTimes="0;1" dur="0.8695652173913042s" begin="-0.5797101449275361s" repeatCount="indefinite"></animate>
  </rect>
</g><g transform="rotate(120 50 50)">
  <rect x="39" y="37" rx="11" ry="2" width="22" height="4" fill="#eab145">
    <animate attributeName="opacity" values="1;0" keyTimes="0;1" dur="0.8695652173913042s" begin="-0.5676328502415459s" repeatCount="indefinite"></animate>
  </rect>
</g><g transform="rotate(125 50 50)">
  <rect x="39" y="37" rx="11" ry="2" width="22" height="4" fill="#eab145">
    <animate attributeName="opacity" values="1;0" keyTimes="0;1" dur="0.8695652173913042s" begin="-0.5555555555555555s" repeatCount="indefinite"></animate>
  </rect>
</g><g transform="rotate(130 50 50)">
  <rect x="39" y="37" rx="11" ry="2" width="22" height="4" fill="#eab145">
    <animate attributeName="opacity" values="1;0" keyTimes="0;1" dur="0.8695652173913042s" begin="-0.5434782608695652s" repeatCount="indefinite"></animate>
  </rect>
</g><g transform="rotate(135 50 50)">
  <rect x="39" y="37" rx="11" ry="2" width="22" height="4" fill="#eab145">
    <animate attributeName="opacity" values="1;0" keyTimes="0;1" dur="0.8695652173913042s" begin="-0.5314009661835748s" repeatCount="indefinite"></animate>
  </rect>
</g><g transform="rotate(140 50 50)">
  <rect x="39" y="37" rx="11" ry="2" width="22" height="4" fill="#eab145">
    <animate attributeName="opacity" values="1;0" keyTimes="0;1" dur="0.8695652173913042s" begin="-0.5193236714975845s" repeatCount="indefinite"></animate>
  </rect>
</g><g transform="rotate(145 50 50)">
  <rect x="39" y="37" rx="11" ry="2" width="22" height="4" fill="#eab145">
    <animate attributeName="opacity" values="1;0" keyTimes="0;1" dur="0.8695652173913042s" begin="-0.5072463768115941s" repeatCount="indefinite"></animate>
  </rect>
</g><g transform="rotate(150 50 50)">
  <rect x="39" y="37" rx="11" ry="2" width="22" height="4" fill="#eab145">
    <animate attributeName="opacity" values="1;0" keyTimes="0;1" dur="0.8695652173913042s" begin="-0.4951690821256038s" repeatCount="indefinite"></animate>
  </rect>
</g><g transform="rotate(155 50 50)">
  <rect x="39" y="37" rx="11" ry="2" width="22" height="4" fill="#eab145">
    <animate attributeName="opacity" values="1;0" keyTimes="0;1" dur="0.8695652173913042s" begin="-0.48309178743961345s" repeatCount="indefinite"></animate>
  </rect>
</g><g transform="rotate(160 50 50)">
  <rect x="39" y="37" rx="11" ry="2" width="22" height="4" fill="#eab145">
    <animate attributeName="opacity" values="1;0" keyTimes="0;1" dur="0.8695652173913042s" begin="-0.4710144927536231s" repeatCount="indefinite"></animate>
  </rect>
</g><g transform="rotate(165 50 50)">
  <rect x="39" y="37" rx="11" ry="2" width="22" height="4" fill="#eab145">
    <animate attributeName="opacity" values="1;0" keyTimes="0;1" dur="0.8695652173913042s" begin="-0.4589371980676328s" repeatCount="indefinite"></animate>
  </rect>
</g><g transform="rotate(170 50 50)">
  <rect x="39" y="37" rx="11" ry="2" width="22" height="4" fill="#eab145">
    <animate attributeName="opacity" values="1;0" keyTimes="0;1" dur="0.8695652173913042s" begin="-0.44685990338164244s" repeatCount="indefinite"></animate>
  </rect>
</g><g transform="rotate(175 50 50)">
  <rect x="39" y="37" rx="11" ry="2" width="22" height="4" fill="#eab145">
    <animate attributeName="opacity" values="1;0" keyTimes="0;1" dur="0.8695652173913042s" begin="-0.4347826086956521s" repeatCount="indefinite"></animate>
  </rect>
</g><g transform="rotate(180 50 50)">
  <rect x="39" y="37" rx="11" ry="2" width="22" height="4" fill="#eab145">
    <animate attributeName="opacity" values="1;0" keyTimes="0;1" dur="0.8695652173913042s" begin="-0.42270531400966177s" repeatCount="indefinite"></animate>
  </rect>
</g><g transform="rotate(185 50 50)">
  <rect x="39" y="37" rx="11" ry="2" width="22" height="4" fill="#eab145">
    <animate attributeName="opacity" values="1;0" keyTimes="0;1" dur="0.8695652173913042s" begin="-0.41062801932367143s" repeatCount="indefinite"></animate>
  </rect>
</g><g transform="rotate(190 50 50)">
  <rect x="39" y="37" rx="11" ry="2" width="22" height="4" fill="#eab145">
    <animate attributeName="opacity" values="1;0" keyTimes="0;1" dur="0.8695652173913042s" begin="-0.3985507246376811s" repeatCount="indefinite"></animate>
  </rect>
</g><g transform="rotate(195 50 50)">
  <rect x="39" y="37" rx="11" ry="2" width="22" height="4" fill="#eab145">
    <animate attributeName="opacity" values="1;0" keyTimes="0;1" dur="0.8695652173913042s" begin="-0.38647342995169076s" repeatCount="indefinite"></animate>
  </rect>
</g><g transform="rotate(200 50 50)">
  <rect x="39" y="37" rx="11" ry="2" width="22" height="4" fill="#eab145">
    <animate attributeName="opacity" values="1;0" keyTimes="0;1" dur="0.8695652173913042s" begin="-0.3743961352657004s" repeatCount="indefinite"></animate>
  </rect>
</g><g transform="rotate(205 50 50)">
  <rect x="39" y="37" rx="11" ry="2" width="22" height="4" fill="#eab145">
    <animate attributeName="opacity" values="1;0" keyTimes="0;1" dur="0.8695652173913042s" begin="-0.3623188405797101s" repeatCount="indefinite"></animate>
  </rect>
</g><g transform="rotate(210 50 50)">
  <rect x="39" y="37" rx="11" ry="2" width="22" height="4" fill="#eab145">
    <animate attributeName="opacity" values="1;0" keyTimes="0;1" dur="0.8695652173913042s" begin="-0.35024154589371975s" repeatCount="indefinite"></animate>
  </rect>
</g><g transform="rotate(215 50 50)">
  <rect x="39" y="37" rx="11" ry="2" width="22" height="4" fill="#eab145">
    <animate attributeName="opacity" values="1;0" keyTimes="0;1" dur="0.8695652173913042s" begin="-0.3381642512077294s" repeatCount="indefinite"></animate>
  </rect>
</g><g transform="rotate(220 50 50)">
  <rect x="39" y="37" rx="11" ry="2" width="22" height="4" fill="#eab145">
    <animate attributeName="opacity" values="1;0" keyTimes="0;1" dur="0.8695652173913042s" begin="-0.3260869565217391s" repeatCount="indefinite"></animate>
  </rect>
</g><g transform="rotate(225 50 50)">
  <rect x="39" y="37" rx="11" ry="2" width="22" height="4" fill="#eab145">
    <animate attributeName="opacity" values="1;0" keyTimes="0;1" dur="0.8695652173913042s" begin="-0.31400966183574874s" repeatCount="indefinite"></animate>
  </rect>
</g><g transform="rotate(230 50 50)">
  <rect x="39" y="37" rx="11" ry="2" width="22" height="4" fill="#eab145">
    <animate attributeName="opacity" values="1;0" keyTimes="0;1" dur="0.8695652173913042s" begin="-0.3019323671497584s" repeatCount="indefinite"></animate>
  </rect>
</g><g transform="rotate(235 50 50)">
  <rect x="39" y="37" rx="11" ry="2" width="22" height="4" fill="#eab145">
    <animate attributeName="opacity" values="1;0" keyTimes="0;1" dur="0.8695652173913042s" begin="-0.28985507246376807s" repeatCount="indefinite"></animate>
  </rect>
</g><g transform="rotate(240 50 50)">
  <rect x="39" y="37" rx="11" ry="2" width="22" height="4" fill="#eab145">
    <animate attributeName="opacity" values="1;0" keyTimes="0;1" dur="0.8695652173913042s" begin="-0.27777777777777773s" repeatCount="indefinite"></animate>
  </rect>
</g><g transform="rotate(245 50 50)">
  <rect x="39" y="37" rx="11" ry="2" width="22" height="4" fill="#eab145">
    <animate attributeName="opacity" values="1;0" keyTimes="0;1" dur="0.8695652173913042s" begin="-0.2657004830917874s" repeatCount="indefinite"></animate>
  </rect>
</g><g transform="rotate(250 50 50)">
  <rect x="39" y="37" rx="11" ry="2" width="22" height="4" fill="#eab145">
    <animate attributeName="opacity" values="1;0" keyTimes="0;1" dur="0.8695652173913042s" begin="-0.25362318840579706s" repeatCount="indefinite"></animate>
  </rect>
</g><g transform="rotate(255 50 50)">
  <rect x="39" y="37" rx="11" ry="2" width="22" height="4" fill="#eab145">
    <animate attributeName="opacity" values="1;0" keyTimes="0;1" dur="0.8695652173913042s" begin="-0.24154589371980673s" repeatCount="indefinite"></animate>
  </rect>
</g><g transform="rotate(260 50 50)">
  <rect x="39" y="37" rx="11" ry="2" width="22" height="4" fill="#eab145">
    <animate attributeName="opacity" values="1;0" keyTimes="0;1" dur="0.8695652173913042s" begin="-0.2294685990338164s" repeatCount="indefinite"></animate>
  </rect>
</g><g transform="rotate(265 50 50)">
  <rect x="39" y="37" rx="11" ry="2" width="22" height="4" fill="#eab145">
    <animate attributeName="opacity" values="1;0" keyTimes="0;1" dur="0.8695652173913042s" begin="-0.21739130434782605s" repeatCount="indefinite"></animate>
  </rect>
</g><g transform="rotate(270 50 50)">
  <rect x="39" y="37" rx="11" ry="2" width="22" height="4" fill="#eab145">
    <animate attributeName="opacity" values="1;0" keyTimes="0;1" dur="0.8695652173913042s" begin="-0.20531400966183572s" repeatCount="indefinite"></animate>
  </rect>
</g><g transform="rotate(275 50 50)">
  <rect x="39" y="37" rx="11" ry="2" width="22" height="4" fill="#eab145">
    <animate attributeName="opacity" values="1;0" keyTimes="0;1" dur="0.8695652173913042s" begin="-0.19323671497584538s" repeatCount="indefinite"></animate>
  </rect>
</g><g transform="rotate(280 50 50)">
  <rect x="39" y="37" rx="11" ry="2" width="22" height="4" fill="#eab145">
    <animate attributeName="opacity" values="1;0" keyTimes="0;1" dur="0.8695652173913042s" begin="-0.18115942028985504s" repeatCount="indefinite"></animate>
  </rect>
</g><g transform="rotate(285 50 50)">
  <rect x="39" y="37" rx="11" ry="2" width="22" height="4" fill="#eab145">
    <animate attributeName="opacity" values="1;0" keyTimes="0;1" dur="0.8695652173913042s" begin="-0.1690821256038647s" repeatCount="indefinite"></animate>
  </rect>
</g><g transform="rotate(290 50 50)">
  <rect x="39" y="37" rx="11" ry="2" width="22" height="4" fill="#eab145">
    <animate attributeName="opacity" values="1;0" keyTimes="0;1" dur="0.8695652173913042s" begin="-0.15700483091787437s" repeatCount="indefinite"></animate>
  </rect>
</g><g transform="rotate(295 50 50)">
  <rect x="39" y="37" rx="11" ry="2" width="22" height="4" fill="#eab145">
    <animate attributeName="opacity" values="1;0" keyTimes="0;1" dur="0.8695652173913042s" begin="-0.14492753623188404s" repeatCount="indefinite"></animate>
  </rect>
</g><g transform="rotate(300 50 50)">
  <rect x="39" y="37" rx="11" ry="2" width="22" height="4" fill="#eab145">
    <animate attributeName="opacity" values="1;0" keyTimes="0;1" dur="0.8695652173913042s" begin="-0.1328502415458937s" repeatCount="indefinite"></animate>
  </rect>
</g><g transform="rotate(305 50 50)">
  <rect x="39" y="37" rx="11" ry="2" width="22" height="4" fill="#eab145">
    <animate attributeName="opacity" values="1;0" keyTimes="0;1" dur="0.8695652173913042s" begin="-0.12077294685990336s" repeatCount="indefinite"></animate>
  </rect>
</g><g transform="rotate(310 50 50)">
  <rect x="39" y="37" rx="11" ry="2" width="22" height="4" fill="#eab145">
    <animate attributeName="opacity" values="1;0" keyTimes="0;1" dur="0.8695652173913042s" begin="-0.10869565217391303s" repeatCount="indefinite"></animate>
  </rect>
</g><g transform="rotate(315 50 50)">
  <rect x="39" y="37" rx="11" ry="2" width="22" height="4" fill="#eab145">
    <animate attributeName="opacity" values="1;0" keyTimes="0;1" dur="0.8695652173913042s" begin="-0.09661835748792269s" repeatCount="indefinite"></animate>
  </rect>
</g><g transform="rotate(320 50 50)">
  <rect x="39" y="37" rx="11" ry="2" width="22" height="4" fill="#eab145">
    <animate attributeName="opacity" values="1;0" keyTimes="0;1" dur="0.8695652173913042s" begin="-0.08454106280193235s" repeatCount="indefinite"></animate>
  </rect>
</g><g transform="rotate(325 50 50)">
  <rect x="39" y="37" rx="11" ry="2" width="22" height="4" fill="#eab145">
    <animate attributeName="opacity" values="1;0" keyTimes="0;1" dur="0.8695652173913042s" begin="-0.07246376811594202s" repeatCount="indefinite"></animate>
  </rect>
</g><g transform="rotate(330 50 50)">
  <rect x="39" y="37" rx="11" ry="2" width="22" height="4" fill="#eab145">
    <animate attributeName="opacity" values="1;0" keyTimes="0;1" dur="0.8695652173913042s" begin="-0.06038647342995168s" repeatCount="indefinite"></animate>
  </rect>
</g><g transform="rotate(335 50 50)">
  <rect x="39" y="37" rx="11" ry="2" width="22" height="4" fill="#eab145">
    <animate attributeName="opacity" values="1;0" keyTimes="0;1" dur="0.8695652173913042s" begin="-0.048309178743961345s" repeatCount="indefinite"></animate>
  </rect>
</g><g transform="rotate(340 50 50)">
  <rect x="39" y="37" rx="11" ry="2" width="22" height="4" fill="#eab145">
    <animate attributeName="opacity" values="1;0" keyTimes="0;1" dur="0.8695652173913042s" begin="-0.03623188405797101s" repeatCount="indefinite"></animate>
  </rect>
</g><g transform="rotate(345 50 50)">
  <rect x="39" y="37" rx="11" ry="2" width="22" height="4" fill="#eab145">
    <animate attributeName="opacity" values="1;0" keyTimes="0;1" dur="0.8695652173913042s" begin="-0.024154589371980673s" repeatCount="indefinite"></animate>
  </rect>
</g><g transform="rotate(350 50 50)">
  <rect x="39" y="37" rx="11" ry="2" width="22" height="4" fill="#eab145">
    <animate attributeName="opacity" values="1;0" keyTimes="0;1" dur="0.8695652173913042s" begin="-0.012077294685990336s" repeatCount="indefinite"></animate>
  </rect>
</g><g transform="rotate(355 50 50)">
  <rect x="39" y="37" rx="11" ry="2" width="22" height="4" fill="#eab145">
    <animate attributeName="opacity" values="1;0" keyTimes="0;1" dur="0.8695652173913042s" begin="0s" repeatCount="indefinite"></animate>
  </rect>
</g>
<!-- [ldio] generated by https://loading.io/ --></svg>